<svg width="914" height="1178" viewBox="0 0 914 1178" fill="none" xmlns="http://www.w3.org/2000/svg">
<g clip-path="url(#clip0_23_387)">
<path d="M454.281 837.411V929.359L453.442 928.531L256.877 732.012L453.442 535.493V627.401L348.959 731.86L348.847 732.012L454.281 837.411Z" fill="#FEC434"/>
<path d="M720.66 429.659V663.012L454.281 929.359V837.411L657.486 634.222L657.557 634.182V579.259L657.234 579.582L475.972 760.832L461.538 775.263L453.452 783.317V696.835L720.66 429.659Z" fill="#FBAB40"/>
<path d="M720.649 268.307V360.256L453.442 627.401V535.493L720.649 268.307Z" fill="#FBAB40"/>
<path d="M256.443 489.15L347.038 579.724L298.329 628.422L256.736 586.829L256.443 586.505V668.45L224.897 700.029L193.34 668.48V266.529L428.638 501.772L388.995 541.405L256.736 409.166L256.443 408.843V489.15Z" fill="#FEC434"/>
<path d="M685.697 231.221L454.099 462.634V400.071C476.033 379.477 517.96 343.107 562.423 308.992C606.523 275.088 653.848 242.923 685.697 231.221Z" fill="#FBAB40"/>
<path d="M454.099 400.071V462.613L225.331 233.504C240.129 238.688 258.949 249.521 279.256 262.618C299.896 275.886 322.264 292.126 344.279 309.103C388.237 342.814 430.589 379.295 454.099 400.071Z" fill="#FEC434"/>
<path d="M685.687 231.221L684.494 230.018L454.099 0L453.695 232.302V232.454L493.954 272.299L494.024 272.4L493.994 272.511L477.781 301.989L685.687 231.221Z" fill="#FBAB40"/>
<path d="M225.331 233.505L454.099 0L453.695 232.302V232.454L453.483 232.666L413.8 272.299L413.729 272.4L413.769 272.511L429.032 302.06L225.331 233.505Z" fill="#FEC434"/>
<path d="M128.237 1110.26V1142.77C128.214 1143.86 127.9 1144.93 127.327 1145.86C119.473 1158.07 108 1167.52 94.5112 1172.89C81.0223 1178.26 66.1916 1179.29 52.0918 1175.82C37.9919 1172.36 25.3274 1164.57 15.8681 1153.56C6.40882 1142.55 0.627432 1128.85 -0.668096 1114.4C-1.96362 1099.94 1.29144 1085.43 8.6422 1072.92C15.993 1060.4 27.0721 1050.49 40.3313 1044.57C53.5905 1038.66 68.3672 1037.03 82.5964 1039.92C96.8256 1042.81 109.796 1050.07 119.696 1060.69L100.632 1078.88C96.6978 1074.43 91.8608 1070.86 86.4428 1068.42C81.0247 1065.99 75.1496 1064.73 69.2075 1064.73C57.8169 1064.76 46.9046 1069.31 38.8673 1077.38C30.8299 1085.45 26.3246 1096.38 26.3407 1107.77C26.3407 1131.56 45.5959 1151.17 69.2075 1151.17C75.4328 1151.24 81.5946 1149.92 87.2476 1147.31C92.9007 1144.7 97.9039 1140.87 101.896 1136.1V1110.31L128.237 1110.26Z" fill="#FBAB40"/>
<path d="M170.012 1107.72C170.012 1089.39 177.294 1071.82 190.256 1058.86C203.217 1045.9 220.797 1038.62 239.128 1038.62C257.459 1038.62 275.039 1045.9 288.001 1058.86C300.963 1071.82 308.245 1089.39 308.245 1107.72C308.245 1146.21 277.366 1177.27 239.219 1177.27C230.107 1177.24 221.089 1175.43 212.68 1171.92C204.27 1168.41 196.634 1163.28 190.207 1156.82C183.781 1150.37 178.689 1142.71 175.224 1134.28C171.759 1125.86 169.988 1116.83 170.012 1107.72V1107.72ZM282.086 1107.72C282.086 1096.35 277.57 1085.45 269.531 1077.42C261.492 1069.38 250.588 1064.86 239.219 1064.86C227.85 1064.86 216.947 1069.38 208.908 1077.42C200.869 1085.45 196.352 1096.35 196.352 1107.72C196.352 1131.51 215.608 1151.12 239.219 1151.12C262.831 1151.12 281.904 1131.69 282.086 1107.72Z" fill="#FBAB40"/>
<path d="M368.184 1048.34V1104.63H453.371V1111.89H368.184V1175.46H360.916V1045.98C360.919 1045.32 361.052 1044.67 361.309 1044.07C361.566 1043.46 361.941 1042.92 362.411 1042.46C362.882 1042.01 363.44 1041.65 364.051 1041.41C364.662 1041.17 365.314 1041.06 365.97 1041.07H458.789V1048.34H368.184Z" fill="#232323"/>
<path d="M587.784 1175.46L535.113 1050.33L481.542 1175.46H473.375L530.402 1041.8C531.494 1039.44 533.313 1038.35 535.133 1038.35C536.179 1038.37 537.193 1038.71 538.037 1039.33C538.882 1039.95 539.516 1040.81 539.853 1041.8L596.163 1175.46H587.784Z" fill="#232323"/>
<path d="M747.263 1041.08V1172C747.277 1172.72 747.145 1173.43 746.877 1174.1C746.608 1174.77 746.207 1175.37 745.698 1175.88C745.19 1176.39 744.583 1176.79 743.916 1177.06C743.249 1177.33 742.534 1177.46 741.815 1177.45C740.922 1177.46 740.039 1177.25 739.246 1176.84C738.452 1176.43 737.772 1175.83 737.267 1175.09L643.366 1049.6V1175.46H636.099V1043.79C636.086 1043.07 636.219 1042.36 636.488 1041.69C636.758 1041.03 637.159 1040.42 637.667 1039.91C638.175 1039.41 638.781 1039.01 639.447 1038.74C640.114 1038.47 640.828 1038.33 641.547 1038.35C642.443 1038.32 643.332 1038.52 644.127 1038.93C644.922 1039.35 645.596 1039.96 646.085 1040.71L739.996 1166.92V1041.08H747.263Z" fill="#232323"/>
<path d="M801.754 1170.37C801.755 1169.25 802.14 1168.16 802.846 1167.28L903.832 1048.34H803.563V1041.07H909.098C909.743 1041.07 910.382 1041.19 910.979 1041.44C911.575 1041.68 912.117 1042.04 912.573 1042.5C913.029 1042.96 913.39 1043.5 913.635 1044.1C913.88 1044.69 914.004 1045.33 914 1045.98C914.033 1047.16 913.65 1048.31 912.919 1049.24L812.104 1168.18H913.273V1175.45H806.838C806.167 1175.46 805.499 1175.34 804.876 1175.09C804.252 1174.84 803.685 1174.47 803.21 1174C802.735 1173.52 802.361 1172.96 802.11 1172.33C801.86 1171.71 801.739 1171.04 801.754 1170.37V1170.37Z" fill="#232323"/>
</g>
<defs>
<clipPath id="clip0_23_387">
<rect width="914" height="1177.45" fill="white"/>
</clipPath>
</defs>
</svg>
