<svg xmlns="http://www.w3.org/2000/svg" viewBox="0 0 904.26 1165.17"><defs><style>.cls-1{fill:#fec434;}.cls-2{fill:#fbab40;}.cls-3{fill:#f6f6f6;}</style></defs><g id="Слой_2" data-name="Слой 2"><g id="Слой_1-2" data-name="Слой 1"><g id="Logo"><g id="Logo-2" data-name="Logo"><polygon class="cls-1" points="449.44 828.68 449.44 919.67 448.61 918.85 254.14 724.38 448.61 529.91 448.61 620.86 345.24 724.23 345.13 724.38 449.44 828.68"/><polygon class="cls-2" points="712.98 425.18 712.98 656.1 449.44 919.67 449.44 828.68 650.48 627.61 650.55 627.57 650.55 573.22 650.23 573.54 470.9 752.9 456.62 767.18 448.62 775.15 448.62 689.57 712.98 425.18"/><polygon class="cls-2" points="712.97 265.51 712.97 356.5 448.61 620.86 448.61 529.91 712.97 265.51"/><polygon class="cls-1" points="253.71 484.05 343.34 573.68 295.15 621.87 254 580.71 253.71 580.39 253.71 661.48 222.5 692.73 191.28 661.51 191.28 263.75 424.07 496.54 384.85 535.76 254 404.9 253.71 404.58 253.71 484.05"/><path class="cls-2" d="M678.39,228.81l-229.13,229V395.9c21.7-20.38,63.18-56.37,107.17-90.13C600.06,272.22,646.88,240.39,678.39,228.81Z"/><path class="cls-1" d="M449.26,395.9v61.89L222.93,231.07c14.64,5.13,33.26,15.85,53.35,28.81,20.42,13.13,42.55,29.2,64.33,46C384.1,339.24,426,375.34,449.26,395.9Z"/><polygon class="cls-2" points="678.38 228.81 677.2 227.62 449.26 0 448.86 229.88 448.86 230.03 488.69 269.46 488.76 269.56 488.73 269.67 472.69 298.84 678.38 228.81 678.38 228.81"/><polygon class="cls-1" points="222.93 231.07 449.26 0 448.86 229.88 448.86 230.03 448.65 230.24 409.39 269.46 409.32 269.56 409.36 269.67 424.46 298.91 222.93 231.07"/></g><path class="cls-2" d="M126.87,1098.68v32.17a6.07,6.07,0,0,1-.9,3.06,68.93,68.93,0,1,1-7.55-84.28l-18.86,18a41.44,41.44,0,0,0-31.09-14,42.53,42.53,0,0,0-42.41,42.59c0,23.54,19.05,42.95,42.41,42.95a41.59,41.59,0,0,0,32.34-14.92v-25.52Z"/><path class="cls-2" d="M168.2,1096.17a68.38,68.38,0,1,1,136.76,0c0,38.09-30.55,68.82-68.29,68.82A68.64,68.64,0,0,1,168.2,1096.17Zm110.88,0a42.41,42.41,0,1,0-84.82,0c0,23.54,19.05,42.95,42.41,42.95S278.9,1119.89,279.08,1096.17Z"/><path class="cls-3" d="M364.26,1037.41v55.7h84.28v7.19H364.26v62.9h-7.19V1035.07a4.87,4.87,0,0,1,5-4.85h91.83v7.19Z"/><path class="cls-3" d="M581.52,1163.2l-52.11-123.82-53,123.82h-8.08l56.42-132.26c1.08-2.34,2.88-3.42,4.68-3.42a5.05,5.05,0,0,1,4.67,3.42l55.71,132.26Z"/><path class="cls-3" d="M739.3,1030.22v129.56a5.29,5.29,0,0,1-5.39,5.39,5.37,5.37,0,0,1-4.5-2.33l-92.9-124.18V1163.2h-7.19V1032.91a5.3,5.3,0,0,1,5.39-5.39,5.15,5.15,0,0,1,4.49,2.34l92.91,124.89V1030.22Z"/><path class="cls-3" d="M793.21,1158.17a4.89,4.89,0,0,1,1.08-3.06l99.91-117.7H795v-7.19H899.41a4.82,4.82,0,0,1,4.85,4.85,5,5,0,0,1-1.07,3.23L803.45,1156H903.54v7.19H798.24A4.91,4.91,0,0,1,793.21,1158.17Z"/></g></g></g></svg>